<svg width="23" height="24" viewBox="0 0 23 24" fill="none" xmlns="http://www.w3.org/2000/svg">
<path d="M3.60455 24C2.20245 24 1.04419 22.8417 1.04419 21.4396C1.04419 20.0375 2.20245 18.8792 3.60455 18.8792C5.00666 18.8792 6.16492 20.0375 6.16492 21.4396C6.22588 22.8417 5.06762 24 3.60455 24ZM3.60455 20.0985C2.87302 20.0985 2.32437 20.6471 2.32437 21.3786C2.32437 22.1102 2.87302 22.6588 3.60455 22.6588C4.33608 22.6588 4.88473 22.1102 4.88473 21.3786C4.88473 20.7081 4.33608 20.0985 3.60455 20.0985Z" fill="#666666"/>
<path d="M20.4297 24C19.0276 24 17.8694 22.8417 17.8694 21.4396C17.8694 20.0375 19.0276 18.8792 20.4297 18.8792C21.8319 18.8792 22.9901 20.0375 22.9901 21.4396C22.9901 22.8417 21.8319 24 20.4297 24ZM20.4297 20.0985C19.6982 20.0985 19.1496 20.6471 19.1496 21.3786C19.1496 22.1102 19.6982 22.6588 20.4297 22.6588C21.1613 22.6588 21.7099 22.1102 21.7099 21.3786C21.7099 20.7081 21.1003 20.0985 20.4297 20.0985Z" fill="#666666"/>
<path d="M20.4297 20.0981H3.54354C3.36065 20.0981 3.17777 20.0371 3.05585 19.9152C2.93393 19.7933 2.87296 19.6104 2.87296 19.4275L2.93393 2.90708L0.312601 1.20017C0.00779635 1.01729 -0.114126 0.59056 0.129718 0.285755C0.312601 -0.0190503 0.739329 -0.0800114 1.04413 0.102872L3.97026 1.99266C4.15315 2.11459 4.27507 2.29747 4.27507 2.54131L4.21411 18.8179H20.3688C20.7345 18.8179 21.0393 19.1227 21.0393 19.4885C21.0393 19.8542 20.7955 20.0981 20.4297 20.0981Z" fill="#666666"/>
<path d="M20.3687 12.4782H6.53052V15.892H20.3687V12.4782Z" fill="#666666"/>
<path d="M17.2597 5.89377H6.53052V9.30759H17.2597V5.89377Z" fill="#666666"/>
</svg>
