<svg width="23" height="24" viewBox="0 0 23 24" fill="none" xmlns="http://www.w3.org/2000/svg">
<path d="M18.7525 2.02105C19.5385 2.02105 20.3245 2.90526 20.3245 4.16842V13.7684C20.3245 14.9053 19.5385 15.9158 18.528 15.9158H10.6683H10.1069L9.54552 16.4211L6.28938 19.5789V17.9368V15.9158H4.49288C3.48236 15.9158 2.69639 14.9053 2.69639 13.7684V4.16842C2.69639 2.90526 3.59464 2.02105 4.71745 2.02105H18.7525V2.02105ZM18.7525 0H4.71745C2.58411 0 0.899902 1.89474 0.899902 4.16842V13.7684C0.899902 16.0421 2.58411 17.9368 4.49288 17.9368V24L10.7806 18.0632H18.6403C20.6613 18.0632 22.2332 16.1684 22.2332 13.8947V4.16842C22.2332 1.89474 20.549 0 18.7525 0Z" fill="#666666"/>
<path d="M16.9561 7.07368H9.09649C8.64737 7.07368 8.19824 6.56842 8.19824 6.06315C8.19824 5.55789 8.64737 5.05263 9.09649 5.05263H16.9561C17.4053 5.05263 17.8544 5.55789 17.8544 6.06315C17.8544 6.69473 17.5175 7.07368 16.9561 7.07368Z" fill="#666666"/>
</svg>
