<svg width="18" height="19" viewBox="0 0 18 19" fill="none" xmlns="http://www.w3.org/2000/svg">
<path d="M2.125 1.25C1.79348 1.25 1.47554 1.3817 1.24112 1.61612C1.0067 1.85054 0.875 2.16848 0.875 2.5V3.75C0.875 4.08152 1.0067 4.39946 1.24112 4.63388C1.47554 4.8683 1.79348 5 2.125 5H2.75V16.25C2.75 16.913 3.01339 17.5489 3.48223 18.0178C3.95107 18.4866 4.58696 18.75 5.25 18.75H12.75C13.413 18.75 14.0489 18.4866 14.5178 18.0178C14.9866 17.5489 15.25 16.913 15.25 16.25V5H15.875C16.2065 5 16.5245 4.8683 16.7589 4.63388C16.9933 4.39946 17.125 4.08152 17.125 3.75V2.5C17.125 2.16848 16.9933 1.85054 16.7589 1.61612C16.5245 1.3817 16.2065 1.25 15.875 1.25H11.5C11.5 0.918479 11.3683 0.600537 11.1339 0.366117C10.8995 0.131696 10.5815 0 10.25 0L7.75 0C7.41848 0 7.10054 0.131696 6.86612 0.366117C6.6317 0.600537 6.5 0.918479 6.5 1.25H2.125ZM5.875 6.25C6.04076 6.25 6.19973 6.31585 6.31694 6.43306C6.43415 6.55027 6.5 6.70924 6.5 6.875V15.625C6.5 15.7908 6.43415 15.9497 6.31694 16.0669C6.19973 16.1842 6.04076 16.25 5.875 16.25C5.70924 16.25 5.55027 16.1842 5.43306 16.0669C5.31585 15.9497 5.25 15.7908 5.25 15.625V6.875C5.25 6.70924 5.31585 6.55027 5.43306 6.43306C5.55027 6.31585 5.70924 6.25 5.875 6.25V6.25ZM9 6.25C9.16576 6.25 9.32473 6.31585 9.44194 6.43306C9.55915 6.55027 9.625 6.70924 9.625 6.875V15.625C9.625 15.7908 9.55915 15.9497 9.44194 16.0669C9.32473 16.1842 9.16576 16.25 9 16.25C8.83424 16.25 8.67527 16.1842 8.55806 16.0669C8.44085 15.9497 8.375 15.7908 8.375 15.625V6.875C8.375 6.70924 8.44085 6.55027 8.55806 6.43306C8.67527 6.31585 8.83424 6.25 9 6.25V6.25ZM12.75 6.875V15.625C12.75 15.7908 12.6842 15.9497 12.5669 16.0669C12.4497 16.1842 12.2908 16.25 12.125 16.25C11.9592 16.25 11.8003 16.1842 11.6831 16.0669C11.5658 15.9497 11.5 15.7908 11.5 15.625V6.875C11.5 6.70924 11.5658 6.55027 11.6831 6.43306C11.8003 6.31585 11.9592 6.25 12.125 6.25C12.2908 6.25 12.4497 6.31585 12.5669 6.43306C12.6842 6.55027 12.75 6.70924 12.75 6.875V6.875Z" fill="#F24E1E"/>
</svg>
