<svg width="24" height="24" viewBox="0 0 24 24" fill="none" xmlns="http://www.w3.org/2000/svg">
<path d="M22.6667 13.3333H1.33333C0.533333 13.3333 0 12.8 0 12C0 11.2 0.533333 10.6667 1.33333 10.6667H22.6667C23.4667 10.6667 24 11.2 24 12C24 12.8 23.4667 13.3333 22.6667 13.3333Z" fill="#606060"/>
<path d="M22.6667 24H1.33333C0.533333 24 0 23.4667 0 22.6667C0 21.8667 0.533333 21.3333 1.33333 21.3333H22.6667C23.4667 21.3333 24 21.8667 24 22.6667C24 23.4667 23.4667 24 22.6667 24Z" fill="#606060"/>
<path d="M22.6667 2.66667H1.33333C0.533333 2.66667 0 2.13333 0 1.33333C0 0.533333 0.533333 0 1.33333 0H22.6667C23.4667 0 24 0.533333 24 1.33333C24 2.13333 23.4667 2.66667 22.6667 2.66667Z" fill="#606060"/>
</svg>
