<svg width="23" height="24" viewBox="0 0 23 24" fill="none" xmlns="http://www.w3.org/2000/svg">
<path d="M12.0599 0.360009C7.07994 -1.07999 1.85994 1.80001 0.359941 6.84001C-1.08006 11.82 1.79994 17.04 6.83994 18.54C9.35994 19.26 11.8799 18.9 14.0399 17.76C14.3399 17.58 14.6399 17.4 14.8799 17.22L20.5799 23.64C20.9399 24 21.4799 24.12 21.8999 23.88C21.9599 23.82 22.0199 23.82 22.0799 23.76C22.4399 23.4 22.5599 22.86 22.3199 22.44C22.2599 22.38 22.2599 22.32 22.1999 22.26L16.4999 15.78C17.3999 14.76 18.1199 13.5 18.5399 12.12C19.9799 7.08001 17.0999 1.86001 12.0599 0.360009ZM7.25994 17.04C3.05994 15.84 0.659941 11.46 1.85994 7.26001C2.45994 5.16001 3.83994 3.54001 5.63994 2.58001C7.43994 1.62001 9.53994 1.32001 11.6399 1.92001C15.8399 3.12001 18.2399 7.50001 17.0399 11.7C15.8399 15.9 11.3999 18.24 7.25994 17.04Z" fill="#606060"/>
<path d="M5.99985 12.12C5.63985 12.3 5.21985 12.18 5.03985 11.82C4.37985 10.62 4.25985 9.29999 4.61985 7.97999C5.15985 6.05999 6.77985 4.67999 8.75985 4.37999C9.47985 4.25999 10.1399 4.31999 10.7999 4.55999C11.1599 4.67999 11.3999 5.03999 11.2799 5.45999C11.1599 5.81999 10.7999 6.05999 10.3799 5.93999C9.89985 5.81999 9.41985 5.75999 8.93985 5.81999C7.55985 5.99999 6.35985 7.01999 5.99985 8.33999C5.75985 9.23999 5.81985 10.2 6.29985 11.04C6.47985 11.52 6.35985 11.94 5.99985 12.12Z" fill="#606060"/>
</svg>
